<svg width="72" height="72" viewBox="0 0 72 72" fill="none" xmlns="http://www.w3.org/2000/svg">
<g clip-path="url(#clip0_122_6933)">
<path d="M31.2607 62.4C48.5255 62.4 62.5214 48.4313 62.5214 31.2C62.5214 13.9687 48.5255 0 31.2607 0C13.9959 0 0 13.9687 0 31.2C0 48.4313 13.9959 62.4 31.2607 62.4Z" fill="#F4F4F4"/>
<g clip-path="url(#clip1_122_6933)">
<path d="M71.3896 56.0114C70.999 55.6208 70.4691 55.4014 69.9167 55.4014C69.3643 55.4014 68.8345 55.6208 68.4438 56.0114L56.7209 67.7364L51.1209 62.2093C50.7341 61.8129 50.2057 61.5863 49.6519 61.5795C49.0981 61.5726 48.5642 61.7861 48.1678 62.1729C47.7713 62.5596 47.5448 63.088 47.5379 63.6419C47.5311 64.1957 47.7445 64.7295 48.1313 65.126L53.848 70.751C54.2065 71.1376 54.6397 71.4476 55.1212 71.6625C55.6028 71.8773 56.1228 71.9924 56.65 72.001H56.7188C57.2356 72.0027 57.7476 71.9017 58.225 71.704C58.7024 71.5062 59.1358 71.2155 59.5 70.8489L71.3896 58.9572C71.7802 58.5665 71.9996 58.0367 71.9996 57.4843C71.9996 56.9319 71.7802 56.4021 71.3896 56.0114ZM44.9167 36.5843V46.1385L39.2771 51.7781C39.0782 51.9702 38.9194 52.2001 38.8103 52.4543C38.7011 52.7085 38.6436 52.9819 38.6412 53.2585C38.6388 53.5351 38.6915 53.8094 38.7963 54.0655C38.901 54.3215 39.0557 54.5541 39.2513 54.7497C39.4469 54.9453 39.6795 55.1 39.9356 55.2048C40.1916 55.3095 40.4659 55.3622 40.7425 55.3598C41.0192 55.3574 41.2925 55.3 41.5467 55.1908C41.8009 55.0816 42.0308 54.9229 42.223 54.7239L48.473 48.4739C48.8637 48.0833 49.0833 47.5535 49.0834 47.001V36.5843C49.0834 36.0318 48.8639 35.5019 48.4732 35.1112C48.0825 34.7205 47.5526 34.501 47 34.501C46.4475 34.501 45.9176 34.7205 45.5269 35.1112C45.1362 35.5019 44.9167 36.0318 44.9167 36.5843Z" fill="#E30016"/>
<path d="M45.1042 67.7486C41.0813 67.381 37.2521 65.8518 34.0828 63.3472C30.9134 60.8425 28.5405 57.4704 27.2531 53.6415C25.9656 49.8126 25.8191 45.6919 26.8314 41.7812C27.8436 37.8705 29.971 34.3384 32.9545 31.615C35.938 28.8916 39.6489 27.0943 43.6355 26.4419C47.622 25.7895 51.7123 26.3102 55.4083 27.9405C59.1042 29.5709 62.2465 32.2406 64.4525 35.6247C66.6585 39.0087 67.8331 42.9611 67.8333 47.0007C67.8333 47.6403 67.8021 48.2736 67.7479 48.8986C67.7224 49.1718 67.7511 49.4473 67.8324 49.7093C67.9136 49.9713 68.0458 50.2147 68.2214 50.4255C68.397 50.6363 68.6125 50.8104 68.8555 50.9377C69.0985 51.065 69.3642 51.143 69.6375 51.1674C69.9106 51.1948 70.1864 51.1675 70.4487 51.0869C70.7111 51.0063 70.9547 50.8741 71.1652 50.6981C71.3758 50.5221 71.5491 50.3058 71.6749 50.0619C71.8007 49.818 71.8765 49.5514 71.8979 49.2778C71.9646 48.5215 72 47.7653 72 47.0007C71.9998 42.153 70.5901 37.41 67.9427 33.349C65.2953 29.2881 61.5243 26.0844 57.0889 24.1281C52.6535 22.1718 47.745 21.5472 42.961 22.3304C38.177 23.1136 33.7239 25.2708 30.1438 28.5393C26.5638 31.8078 24.0112 36.0467 22.797 40.7399C21.5827 45.433 21.7591 50.378 23.3047 54.9727C24.8503 59.5674 27.6984 63.6136 31.5022 66.6187C35.306 69.6239 39.9015 71.4583 44.7292 71.8986C44.7938 71.8986 44.8563 71.8986 44.9188 71.8986C45.4713 71.9232 46.011 71.7273 46.419 71.354C46.8271 70.9807 47.0702 70.4605 47.0948 69.908C47.1194 69.3555 46.9235 68.8158 46.5502 68.4077C46.1768 67.9996 45.6567 67.7565 45.1042 67.732V67.7486Z" fill="#0093DD"/>
</g>
</g>
<defs>
<clipPath id="clip0_122_6933">
<rect width="72" height="72" fill="white"/>
</clipPath>
<clipPath id="clip1_122_6933">
<rect width="50" height="50" fill="white" transform="translate(22 22)"/>
</clipPath>
</defs>
</svg>
