<svg width="72" height="72" viewBox="0 0 72 72" fill="none" xmlns="http://www.w3.org/2000/svg">
<path d="M31.2607 62.4C48.5255 62.4 62.5214 48.4313 62.5214 31.2C62.5214 13.9687 48.5255 0 31.2607 0C13.9959 0 0 13.9687 0 31.2C0 48.4313 13.9959 62.4 31.2607 62.4Z" fill="#F4F4F4"/>
<path d="M20.4397 41.5551V63.3618C20.4397 66.3727 22.8852 68.8135 25.9019 68.8135H42.7764H57.8952L67.7999 67.2002L69.6 58.4942V41.5551M20.4397 41.5551V30.6518C20.4397 27.641 22.8852 25.2002 25.9019 25.2002H64.1377C67.1545 25.2002 69.6 27.641 69.6 30.6518V41.5551" fill="white"/>
<path d="M20.4397 41.5551V63.3618C20.4397 66.3727 22.8852 68.8135 25.9019 68.8135H42.7764H57.8952H66.6C68.2568 68.8135 69.6 67.4703 69.6 65.8135V58.4942V41.5551M20.4397 41.5551V30.6518C20.4397 27.641 22.8852 25.2002 25.9019 25.2002H64.1377C67.1545 25.2002 69.6 27.641 69.6 30.6518V41.5551" stroke="#009EE0" stroke-width="3" stroke-linecap="round" stroke-linejoin="round"/>
<path fill-rule="evenodd" clip-rule="evenodd" d="M38.6296 54.9818C38.4755 55.5017 38.4652 56.1234 38.6958 56.866C38.7741 56.8586 38.8533 56.8548 38.9334 56.8548C40.3142 56.8548 41.4334 57.9824 41.4334 59.3733C41.4334 60.7642 40.3142 61.8918 38.9334 61.8918C37.5527 61.8918 36.4334 60.7642 36.4334 59.3733C36.4334 58.672 36.718 58.0376 37.1772 57.5809C36.7935 56.4846 36.7525 55.4502 37.0316 54.5082C37.0377 54.4874 37.0441 54.4667 37.0506 54.446C33.5519 55.6977 30.6001 57.692 30.6001 60.4226V65.867H60.6V60.4226C60.6 57.7165 57.701 55.7336 54.2436 54.4799C54.4136 54.9635 54.5103 55.4783 54.5285 56.0215H54.7177C54.9096 56.0215 55.0956 56.0877 55.2444 56.209L56.96 57.6082C57.1541 57.7664 57.2667 58.0036 57.2667 58.254V61.8918C57.2667 62.3521 56.8936 62.7251 56.4334 62.7251H54.7177V61.0585H55.6V58.6497L54.421 57.6882H54.3538C54.3461 57.7209 54.3382 57.7538 54.33 57.7868L53.9322 57.6882H52.6125L51.4334 58.6497V61.0585H52.3157V62.7251H50.6C50.1398 62.7251 49.7667 62.3521 49.7667 61.8918V58.254C49.7667 58.0036 49.8793 57.7664 50.0734 57.6082L51.789 56.209C51.9378 56.0877 52.1238 56.0215 52.3157 56.0215H52.8605C52.8399 55.5945 52.7503 55.2126 52.6095 54.8707C52.441 54.4613 52.1895 54.0862 51.8619 53.7471C51.7528 53.7189 51.6436 53.6914 51.5345 53.6647C51.1155 53.5617 50.6858 53.7723 50.4956 54.1622H47.1088C46.3682 54.1623 45.9912 54.1623 45.6208 54.1623C45.2366 54.1623 44.8594 54.1623 44.0911 54.1624L40.7046 54.1622C40.5143 53.7723 40.0846 53.5617 39.6656 53.6647C39.5722 53.6876 39.4787 53.711 39.3854 53.735C39.0162 54.1153 38.7627 54.5328 38.6296 54.9818ZM39.7667 59.3733C39.7667 59.8554 39.3821 60.2252 38.9334 60.2252C38.4847 60.2252 38.1001 59.8554 38.1001 59.3733C38.1001 58.8912 38.4847 58.5215 38.9334 58.5215C39.3821 58.5215 39.7667 58.8912 39.7667 59.3733Z" fill="#E30016"/>
<path d="M35.5994 46.8555C35.5994 50.7115 42.5603 51.7001 42.5603 51.7001C42.5603 51.7001 37.7925 44.2849 40.1764 42.9996C42.5603 41.7143 49.0446 39.2425 49.5214 40.1323C53.9077 46.4601 48.2818 51.7001 48.2818 51.7001C48.2818 51.7001 54.766 51.1069 54.766 46.8555C54.766 42.6041 51.7146 37.4629 51.7146 37.4629C51.7146 37.4629 49.5214 34.2002 45.2303 34.2002C40.9394 34.2002 39.4136 37.4629 39.4136 37.4629C39.4136 37.4629 35.5994 42.9996 35.5994 46.8555Z" fill="#E30016"/>
</svg>
