<svg width="72" height="72" viewBox="0 0 72 72" fill="none" xmlns="http://www.w3.org/2000/svg">
<path d="M31.2607 62.4C48.5255 62.4 62.5214 48.4313 62.5214 31.2C62.5214 13.9687 48.5255 0 31.2607 0C13.9959 0 0 13.9687 0 31.2C0 48.4313 13.9959 62.4 31.2607 62.4Z" fill="#F4F4F4"/>
<path d="M20.4397 41.5551V63.3618C20.4397 66.3727 22.8852 68.8135 25.9019 68.8135H42.7764H57.8952L67.7999 67.2002L69.6 58.4942V41.5551M20.4397 41.5551V30.6518C20.4397 27.641 22.8852 25.2002 25.9019 25.2002H64.1377C67.1545 25.2002 69.6 27.641 69.6 30.6518V41.5551" fill="white"/>
<path d="M20.4397 41.5551V63.3618C20.4397 66.3727 22.8852 68.8135 25.9019 68.8135H42.7764H57.8952H66.6C68.2568 68.8135 69.6 67.4703 69.6 65.8135V58.4942V41.5551M20.4397 41.5551V30.6518C20.4397 27.641 22.8852 25.2002 25.9019 25.2002H64.1377C67.1545 25.2002 69.6 27.641 69.6 30.6518V41.5551M20.4397 41.5551H69.6" stroke="#009EE0" stroke-width="3" stroke-linecap="round" stroke-linejoin="round"/>
<path d="M28.6331 36.1031C30.1415 36.1031 31.3641 34.8827 31.3641 33.3773C31.3641 31.8718 30.1415 30.6514 28.6331 30.6514C27.1247 30.6514 25.9019 31.8718 25.9019 33.3773C25.9019 34.8827 27.1247 36.1031 28.6331 36.1031Z" fill="#E30016"/>
<path d="M36.8265 36.1031C38.3349 36.1031 39.5577 34.8827 39.5577 33.3773C39.5577 31.8718 38.3349 30.6514 36.8265 30.6514C35.3183 30.6514 34.0955 31.8718 34.0955 33.3773C34.0955 34.8827 35.3183 36.1031 36.8265 36.1031Z" fill="#E30016"/>
<path d="M37.8 64.56H30.6C29.6061 64.56 28.8 63.9465 28.8 63.1885V56.3314C28.8 55.5734 29.6061 54.96 30.6 54.96H37.8C38.794 54.96 39.6 55.5734 39.6 56.3314V63.1885C39.6 63.9465 38.794 64.56 37.8 64.56ZM32.4 61.8171H36V57.7028H32.4V61.8171Z" fill="#E30016"/>
<path d="M59.58 65.0396H53.1C52.2054 65.0396 51.48 64.3149 51.48 63.4196V47.2196C51.48 46.3242 52.2054 45.5996 53.1 45.5996H59.58C60.4745 45.5996 61.2 46.3242 61.2 47.2196V63.4196C61.2 64.3149 60.4745 65.0396 59.58 65.0396ZM54.72 61.7996H57.96V48.8396H54.72V61.7996Z" fill="#E30016"/>
<path d="M48.2399 65.0398H41.7599C40.8653 65.0398 40.1399 64.3152 40.1399 63.4198V50.4598C40.1399 49.5645 40.8653 48.8398 41.7599 48.8398H48.2399C49.1344 48.8398 49.8599 49.5645 49.8599 50.4598V63.4198C49.8599 64.3152 49.1344 65.0398 48.2399 65.0398ZM43.3799 61.7998H46.6199V52.0798H43.3799V61.7998Z" fill="#E30016"/>
</svg>
