<svg width="72" height="72" viewBox="0 0 72 72" fill="none" xmlns="http://www.w3.org/2000/svg">
<path d="M30.8996 62.4C47.965 62.4 61.7993 48.4313 61.7993 31.2C61.7993 13.9687 47.965 0 30.8996 0C13.8342 0 0 13.9687 0 31.2C0 48.4313 13.8342 62.4 30.8996 62.4Z" fill="#F4F4F4"/>
<path d="M66.66 18H58.2V26.46C58.2 27.2079 57.9029 27.9252 57.374 28.454C56.8452 28.9829 56.1279 29.28 55.38 29.28H44.1C43.3521 29.28 42.6348 28.9829 42.106 28.454C41.5771 27.9252 41.28 27.2079 41.28 26.46V18H32.82C32.0721 18 31.3548 18.2971 30.826 18.826C30.2971 19.3548 30 20.0721 30 20.82V65.94C30 66.6879 30.2971 67.4052 30.826 67.934C31.3548 68.4629 32.0721 68.76 32.82 68.76H66.66C67.4079 68.76 68.1252 68.4629 68.654 67.934C69.1829 67.4052 69.48 66.6879 69.48 65.94V20.82C69.48 20.0721 69.1829 19.3548 68.654 18.826C68.1252 18.2971 67.4079 18 66.66 18Z" fill="white"/>
<path d="M49.74 54.66V43.38M55.38 49.02H44.1M66.66 68.76H32.82C32.0721 68.76 31.3548 68.4629 30.826 67.934C30.2971 67.4052 30 66.6879 30 65.94V20.82C30 20.0721 30.2971 19.3548 30.826 18.826C31.3548 18.2971 32.0721 18 32.82 18H66.66C67.4079 18 68.1252 18.2971 68.654 18.826C69.1829 19.3548 69.48 20.0721 69.48 20.82V65.94C69.48 66.6879 69.1829 67.4052 68.654 67.934C68.1252 68.4629 67.4079 68.76 66.66 68.76ZM41.28 18H58.2V26.46C58.2 27.2079 57.9029 27.9252 57.374 28.454C56.8452 28.9829 56.1279 29.28 55.38 29.28H44.1C43.3521 29.28 42.6348 28.9829 42.106 28.454C41.5771 27.9252 41.28 27.2079 41.28 26.46V18Z" stroke="#009EE0" stroke-width="3" stroke-linecap="round" stroke-linejoin="round"/>
<g clip-path="url(#clip0_114_4389)">
<path fill-rule="evenodd" clip-rule="evenodd" d="M57.8341 45.9006H52.4341V41.7152C52.4341 40.3478 51.2252 39.2402 49.7341 39.2402C48.243 39.2402 47.0341 40.3478 47.0341 41.7152V45.9006H41.6341C40.143 45.9006 38.9341 47.7728 38.9341 49.1402C38.9341 50.5077 40.143 51.6152 41.6341 51.6152H47.0341V56.5652C47.0341 57.9327 48.243 59.0402 49.7341 59.0402C51.2252 59.0402 52.4341 57.9327 52.4341 56.5652V51.6152H57.8341C59.3252 51.6152 60.5341 50.5077 60.5341 49.1402C60.5341 47.7728 59.3252 45.9006 57.8341 45.9006Z" fill="#E30016"/>
</g>
<path fill-rule="evenodd" clip-rule="evenodd" d="M24.3448 42.1585C24.673 42.0993 25.0058 42.0697 25.3392 42.0698C26.0404 42.0698 26.7114 42.1995 27.3295 42.4362L29.7886 38.9393L29.8825 38.9925C28.9709 37.9738 28.4677 36.6542 28.4697 35.2872C28.4697 32.2136 30.9613 29.7219 34.0349 29.7219C37.1084 29.7219 39.6001 32.2136 39.6001 35.2872C39.6001 38.3607 37.1084 40.8524 34.0349 40.8524C33.3963 40.8524 32.7827 40.7447 32.2114 40.5468L29.7227 44.2056C30.4902 45.1838 30.9064 46.3916 30.9044 47.635C30.9044 50.7085 28.4128 53.2002 25.3392 53.2002C22.2657 53.2002 19.774 50.7085 19.774 47.635C19.774 45.9364 20.5351 44.4155 21.7347 43.3946L18.1236 36.2155C17.7511 36.2923 17.3717 36.3309 16.9914 36.3306C16.5125 36.331 16.0355 36.2696 15.5723 36.148L13.013 40.6576C14.0714 41.6706 14.7305 43.0976 14.7305 44.6785C14.7305 47.752 12.2389 50.2437 9.16532 50.2437C6.09175 50.2437 3.6001 47.752 3.6001 44.6785C3.6001 41.6049 6.09175 39.1132 9.16532 39.1132C9.62705 39.1132 10.0756 39.1694 10.5044 39.2753L13.0799 34.724C12.0589 33.7155 11.4262 32.3145 11.4262 30.7654C11.4262 27.6918 13.9178 25.2002 16.9914 25.2002C20.065 25.2002 22.5566 27.6918 22.5566 30.7654C22.5566 32.4285 21.8271 33.9212 20.6707 34.9411L24.3448 42.1585ZM34.0349 38.0698C35.5718 38.0698 36.8175 36.824 36.8175 35.2872C36.8175 33.7503 35.5718 32.5045 34.0349 32.5045C32.498 32.5045 31.2523 33.7503 31.2523 35.2872C31.2523 36.824 32.498 38.0698 34.0349 38.0698ZM9.16532 47.4611C10.7022 47.4611 11.9479 46.2153 11.9479 44.6785C11.9479 43.1416 10.7022 41.8958 9.16532 41.8958C7.62845 41.8958 6.38271 43.1416 6.38271 44.6785C6.38271 46.2153 7.62845 47.4611 9.16532 47.4611ZM16.9914 33.548C18.5283 33.548 19.774 32.3023 19.774 30.7654C19.774 29.2285 18.5283 27.9828 16.9914 27.9828C15.4545 27.9828 14.2088 29.2285 14.2088 30.7654C14.2088 32.3023 15.4545 33.548 16.9914 33.548ZM25.3392 50.4176C26.8761 50.4176 28.1218 49.1718 28.1218 47.635C28.1218 46.0981 26.8761 44.8524 25.3392 44.8524C23.8024 44.8524 22.5566 46.0981 22.5566 47.635C22.5566 49.1718 23.8024 50.4176 25.3392 50.4176Z" fill="#E30016"/>
<defs>
<clipPath id="clip0_114_4389">
<rect width="21.6" height="19.8" fill="white" transform="translate(38.9341 39.2402)"/>
</clipPath>
</defs>
</svg>
