<svg width="20" height="15" viewBox="0 0 20 15" fill="none" xmlns="http://www.w3.org/2000/svg">
<path d="M18.3334 2.95117V11.2845C18.3334 11.837 18.1139 12.3669 17.7232 12.7576C17.3325 13.1483 16.8026 13.3678 16.2501 13.3678H3.75008C3.19755 13.3678 2.66764 13.1483 2.27694 12.7576C1.88624 12.3669 1.66675 11.837 1.66675 11.2845V2.95117" stroke="#3E3E3E" stroke-width="1.4" stroke-linecap="round" stroke-linejoin="round"/>
<path d="M18.3334 2.95052C18.3334 2.39799 18.1139 1.86808 17.7232 1.47738C17.3325 1.08668 16.8026 0.867188 16.2501 0.867188H3.75008C3.19755 0.867188 2.66764 1.08668 2.27694 1.47738C1.88624 1.86808 1.66675 2.39799 1.66675 2.95052L8.89591 7.46441C9.22702 7.67135 9.60962 7.78108 10.0001 7.78108C10.3905 7.78108 10.7731 7.67135 11.1042 7.46441L18.3334 2.95052Z" stroke="#3E3E3E" stroke-width="1.4" stroke-linecap="round" stroke-linejoin="round"/>
</svg>
