<svg width="20" height="20" viewBox="0 0 20 20" fill="none" xmlns="http://www.w3.org/2000/svg">
<path d="M16.8609 8.95557C16.8609 14.3344 11.3517 17.6482 10.2068 18.2793C10.1434 18.3143 10.0722 18.3327 9.99974 18.3327C9.9273 18.3327 9.85605 18.3143 9.79263 18.2793C8.64688 17.6482 3.1394 14.3344 3.1394 8.95557C3.1394 4.6676 5.71219 1.66602 10.0002 1.66602C14.2881 1.66602 16.8609 4.6676 16.8609 8.95557Z" stroke="#3E3E3E" stroke-width="1.4" stroke-linecap="round" stroke-linejoin="round"/>
<path d="M6.56982 8.52608C6.56982 9.43588 6.93124 10.3084 7.57456 10.9517C8.21788 11.595 9.09041 11.9565 10.0002 11.9565C10.91 11.9565 11.7825 11.595 12.4258 10.9517C13.0692 10.3084 13.4306 9.43588 13.4306 8.52608C13.4306 7.61629 13.0692 6.74376 12.4258 6.10044C11.7825 5.45712 10.91 5.0957 10.0002 5.0957C9.09041 5.0957 8.21788 5.45712 7.57456 6.10044C6.93124 6.74376 6.56982 7.61629 6.56982 8.52608V8.52608Z" stroke="#3E3E3E" stroke-width="1.4" stroke-linecap="round" stroke-linejoin="round"/>
</svg>
