<svg width="20" height="20" viewBox="0 0 20 20" fill="none" xmlns="http://www.w3.org/2000/svg">
<path d="M12.2517 17.3861L12.2608 17.3925C13.0478 17.8936 13.9823 18.1112 14.9097 18.0094C15.8372 17.9075 16.7022 17.4923 17.3617 16.8323L17.9346 16.2593C18.0616 16.1324 18.1623 15.9818 18.231 15.816C18.2998 15.6501 18.3351 15.4724 18.3351 15.2929C18.3351 15.1134 18.2998 14.9356 18.231 14.7698C18.1623 14.604 18.0616 14.4533 17.9346 14.3264L15.5181 11.9117C15.3912 11.7847 15.2405 11.684 15.0747 11.6153C14.9089 11.5466 14.7311 11.5112 14.5516 11.5112C14.3721 11.5112 14.1944 11.5466 14.0286 11.6153C13.8627 11.684 13.7121 11.7847 13.5852 11.9117C13.329 12.1678 12.9815 12.3117 12.6192 12.3117C12.2569 12.3117 11.9094 12.1678 11.6532 11.9117L7.78926 8.04683C7.53311 7.79061 7.38922 7.44314 7.38922 7.08085C7.38922 6.71855 7.53311 6.37108 7.78926 6.11486C7.91623 5.98797 8.01695 5.83731 8.08566 5.67148C8.15438 5.50566 8.18975 5.32792 8.18975 5.14841C8.18975 4.96891 8.15438 4.79117 8.08566 4.62534C8.01695 4.45952 7.91623 4.30886 7.78926 4.18197L5.3736 1.76723C5.11738 1.51108 4.76991 1.36719 4.40762 1.36719C4.04532 1.36719 3.69785 1.51108 3.44163 1.76723L2.86777 2.34017C2.20792 2.99981 1.79286 3.86483 1.69117 4.79229C1.58948 5.71975 1.80725 6.65415 2.30849 7.4411L2.31396 7.45021C4.96114 11.3668 8.33458 14.7396 12.2517 17.3861V17.3861Z" stroke="#3E3E3E" stroke-width="1.4" stroke-linecap="round" stroke-linejoin="round"/>
</svg>
